<?xml version="1.0" encoding="UTF-8"?>
<svg xmlns="http://www.w3.org/2000/svg" viewBox="0 0 1600 1200" font-family="'Noto Sans TC', 'PingFang TC', 'Microsoft JhengHei', sans-serif">
  <defs>
    <!-- 淺色背景：柔和漸層 -->
    <linearGradient id="bgLight" x1="0" y1="0" x2="0" y2="1">
      <stop offset="0%" stop-color="#f8fafc"/>
      <stop offset="100%" stop-color="#e2e8f0"/>
    </linearGradient>

    <!-- 卡片用柔和色 -->
    <linearGradient id="clientLight" x1="0" y1="0" x2="0" y2="1">
      <stop offset="0%" stop-color="#cffafe"/><stop offset="100%" stop-color="#a5f3fc"/>
    </linearGradient>
    <linearGradient id="gateLight" x1="0" y1="0" x2="0" y2="1">
      <stop offset="0%" stop-color="#fef3c7"/><stop offset="100%" stop-color="#fde68a"/>
    </linearGradient>
    <linearGradient id="agentLight" x1="0" y1="0" x2="0" y2="1">
      <stop offset="0%" stop-color="#ede9fe"/><stop offset="100%" stop-color="#ddd6fe"/>
    </linearGradient>
    <linearGradient id="eventLight" x1="0" y1="0" x2="0" y2="1">
      <stop offset="0%" stop-color="#d1fae5"/><stop offset="100%" stop-color="#a7f3d0"/>
    </linearGradient>
    <linearGradient id="domainLight" x1="0" y1="0" x2="0" y2="1">
      <stop offset="0%" stop-color="#dbeafe"/><stop offset="100%" stop-color="#bfdbfe"/>
    </linearGradient>
    <linearGradient id="dataLight" x1="0" y1="0" x2="0" y2="1">
      <stop offset="0%" stop-color="#bae6fd"/><stop offset="100%" stop-color="#7dd3fc"/>
    </linearGradient>
    <linearGradient id="meshLight" x1="0" y1="0" x2="0" y2="1">
      <stop offset="0%" stop-color="#fed7aa"/><stop offset="100%" stop-color="#fdba74"/>
    </linearGradient>
    <linearGradient id="rbacLight" x1="0" y1="0" x2="0" y2="1">
      <stop offset="0%" stop-color="#fce7f3"/><stop offset="100%" stop-color="#fbcfe8"/>
    </linearGradient>

    <filter id="softShadow" x="-20%" y="-20%" width="140%" height="140%">
      <feGaussianBlur in="SourceAlpha" stdDeviation="2"/>
      <feOffset dx="0" dy="1.5" result="off"/>
      <feComponentTransfer><feFuncA type="linear" slope="0.15"/></feComponentTransfer>
      <feMerge><feMergeNode/><feMergeNode in="SourceGraphic"/></feMerge>
    </filter>

    <marker id="arrFlow" viewBox="0 0 10 10" refX="9" refY="5" markerWidth="7" markerHeight="7" orient="auto-start-reverse">
      <path d="M 0 0 L 10 5 L 0 10 z" fill="#0891b2"/>
    </marker>
    <marker id="arrData" viewBox="0 0 10 10" refX="9" refY="5" markerWidth="7" markerHeight="7" orient="auto-start-reverse">
      <path d="M 0 0 L 10 5 L 0 10 z" fill="#d97706"/>
    </marker>
    <marker id="arrMesh" viewBox="0 0 10 10" refX="9" refY="5" markerWidth="7" markerHeight="7" orient="auto-start-reverse">
      <path d="M 0 0 L 10 5 L 0 10 z" fill="#c2410c"/>
    </marker>
  </defs>

  <rect width="1600" height="1200" fill="url(#bgLight)"/>

  <!-- Title -->
  <text x="800" y="42" font-size="28" font-weight="700" fill="#0f172a" text-anchor="middle">
    LLM-ERP System Flow & Topology Diagram
  </text>
  <text x="800" y="66" font-size="13" fill="#64748b" text-anchor="middle">
    AI-Native ERP for Small Manufacturers · Multi-Agent · MESH
  </text>

  <!-- ============================================================
       L1 · Client Touchpoints
       ============================================================ -->
  <text x="60" y="105" font-size="12" font-weight="700" fill="#0e7490" letter-spacing="2">L1 · CLIENT TOUCHPOINTS</text>

  <g filter="url(#softShadow)">
    <rect x="60" y="115" width="180" height="80" rx="12" fill="url(#clientLight)" stroke="#0891b2" stroke-width="1.5"/>
    <text x="150" y="143" font-size="14" font-weight="700" fill="#0c4a6e" text-anchor="middle">👔 Owner LINE</text>
    <text x="150" y="163" font-size="10" fill="#0e7490" text-anchor="middle">Owner dashboard</text>
    <text x="150" y="180" font-size="10" fill="#155e75" text-anchor="middle">"Today's status?"</text>
  </g>

  <g filter="url(#softShadow)">
    <rect x="260" y="115" width="180" height="80" rx="12" fill="url(#clientLight)" stroke="#0891b2" stroke-width="1.5"/>
    <text x="350" y="143" font-size="14" font-weight="700" fill="#0c4a6e" text-anchor="middle">👨‍💼 Sales Mobile</text>
    <text x="350" y="163" font-size="10" fill="#0e7490" text-anchor="middle">3-sec query in front of client</text>
    <text x="350" y="180" font-size="10" fill="#155e75" text-anchor="middle">"Customer A pricing"</text>
  </g>

  <g filter="url(#softShadow)">
    <rect x="460" y="115" width="180" height="80" rx="12" fill="url(#clientLight)" stroke="#0891b2" stroke-width="1.5"/>
    <text x="550" y="143" font-size="14" font-weight="700" fill="#0c4a6e" text-anchor="middle">👨‍🏭 Plant Mgr Mobile</text>
    <text x="550" y="163" font-size="10" fill="#0e7490" text-anchor="middle">Push alerts</text>
    <text x="550" y="180" font-size="10" fill="#155e75" text-anchor="middle">WO progress</text>
  </g>

  <g filter="url(#softShadow)">
    <rect x="660" y="115" width="180" height="80" rx="12" fill="url(#clientLight)" stroke="#0891b2" stroke-width="1.5"/>
    <text x="750" y="143" font-size="14" font-weight="700" fill="#0c4a6e" text-anchor="middle">👩‍💻 Warehouse QR Scan</text>
    <text x="750" y="163" font-size="10" fill="#0e7490" text-anchor="middle">Receive / Stocktake</text>
    <text x="750" y="180" font-size="10" fill="#155e75" text-anchor="middle">Photo evidence</text>
  </g>

  <g filter="url(#softShadow)">
    <rect x="860" y="115" width="180" height="80" rx="12" fill="url(#clientLight)" stroke="#0891b2" stroke-width="1.5"/>
    <text x="950" y="143" font-size="14" font-weight="700" fill="#0c4a6e" text-anchor="middle">🖥️ Desktop UI</text>
    <text x="950" y="163" font-size="10" fill="#0e7490" text-anchor="middle">React + Vite</text>
    <text x="950" y="180" font-size="10" fill="#155e75" text-anchor="middle">ZH/EN bilingual</text>
  </g>

  <g filter="url(#softShadow)">
    <rect x="1060" y="115" width="180" height="80" rx="12" fill="url(#clientLight)" stroke="#0891b2" stroke-width="1.5"/>
    <text x="1150" y="143" font-size="14" font-weight="700" fill="#0c4a6e" text-anchor="middle">📡 War Room</text>
    <text x="1150" y="163" font-size="10" fill="#0e7490" text-anchor="middle">SSE live board</text>
    <text x="1150" y="180" font-size="10" fill="#155e75" text-anchor="middle">Command center</text>
  </g>

  <g filter="url(#softShadow)">
    <rect x="1260" y="115" width="180" height="80" rx="12" fill="url(#clientLight)" stroke="#0891b2" stroke-width="1.5"/>
    <text x="1350" y="143" font-size="14" font-weight="700" fill="#0c4a6e" text-anchor="middle">👴 Outsource LINE</text>
    <text x="1350" y="163" font-size="10" fill="#0e7490" text-anchor="middle">No registration</text>
    <text x="1350" y="180" font-size="10" fill="#155e75" text-anchor="middle">Report completion</text>
  </g>

  <g stroke="#0891b2" stroke-width="1.5" fill="none" marker-end="url(#arrFlow)" opacity="0.7">
    <path d="M 150 195 L 150 230"/>
    <path d="M 350 195 L 350 230"/>
    <path d="M 550 195 L 550 230"/>
    <path d="M 750 195 L 750 230"/>
    <path d="M 950 195 L 950 230"/>
    <path d="M 1150 195 L 1150 230"/>
    <path d="M 1350 195 L 1350 230"/>
  </g>

  <!-- L2 API Gateway -->
  <text x="60" y="220" font-size="12" font-weight="700" fill="#b45309" letter-spacing="2">L2 · API GATEWAY · Auth / Permission / Audit</text>

  <g filter="url(#softShadow)">
    <rect x="60" y="230" width="1380" height="80" rx="12" fill="url(#gateLight)" stroke="#d97706" stroke-width="1.5"/>
    <text x="750" y="262" font-size="16" font-weight="700" fill="#7c2d12" text-anchor="middle">
      🔐 AuthMiddleware → 📋 AuditMiddleware → 🛡️ RBAC 109 perms → 🪟 Row-Level Filter → ⚠️ Exception Handler
    </text>
    <text x="750" y="288" font-size="11" fill="#92400e" text-anchor="middle" font-weight="500">
      ① JWT verify → ② Load UserContext → ③ require_permission check → ④ tenant_id auto-inject → ⑤ Unified error response
    </text>
  </g>

  <g stroke="#d97706" stroke-width="1.5" fill="none" marker-end="url(#arrData)" opacity="0.6">
    <path d="M 400 310 L 400 350"/>
    <path d="M 1100 310 L 1100 350"/>
  </g>

  <!-- L3a Multi-Agent -->
  <text x="60" y="345" font-size="12" font-weight="700" fill="#6d28d9" letter-spacing="2">L3a · MULTI-AGENT · AI Brain</text>

  <g filter="url(#softShadow)">
    <rect x="60" y="355" width="700" height="240" rx="14" fill="url(#agentLight)" stroke="#7c3aed" stroke-width="1.5"/>
    <text x="410" y="385" font-size="15" font-weight="700" fill="#4c1d95" text-anchor="middle">🤖 Multi-Agent Engine</text>

    <rect x="80" y="400" width="200" height="60" rx="8" fill="#f5f3ff" stroke="#a78bfa" stroke-width="1"/>
    <text x="180" y="425" font-size="12" font-weight="700" fill="#4c1d95" text-anchor="middle">① IntentClassifier</text>
    <text x="180" y="445" font-size="10" fill="#6d28d9" text-anchor="middle">Weighted keywords → domain</text>

    <text x="295" y="435" font-size="20" fill="#6d28d9">→</text>

    <rect x="320" y="400" width="200" height="60" rx="8" fill="#f5f3ff" stroke="#a78bfa" stroke-width="1"/>
    <text x="420" y="420" font-size="12" font-weight="700" fill="#4c1d95" text-anchor="middle">② Agent Pool (10)</text>
    <text x="420" y="438" font-size="10" fill="#6d28d9" text-anchor="middle">Inventory / Sales / WMS</text>
    <text x="420" y="453" font-size="10" fill="#6d28d9" text-anchor="middle">Production / Quality...</text>

    <text x="535" y="435" font-size="20" fill="#6d28d9">→</text>

    <rect x="560" y="400" width="180" height="60" rx="8" fill="#f5f3ff" stroke="#a78bfa" stroke-width="1"/>
    <text x="650" y="420" font-size="12" font-weight="700" fill="#4c1d95" text-anchor="middle">③ Tool Calling Loop</text>
    <text x="650" y="438" font-size="10" fill="#6d28d9" text-anchor="middle">26+ tools · max 5 rounds</text>
    <text x="650" y="453" font-size="10" fill="#6d28d9" text-anchor="middle">→ Calls Domain Services</text>

    <text x="410" y="490" font-size="12" font-weight="700" fill="#4c1d95" text-anchor="middle">④ LLM Provider (4 switchable)</text>

    <rect x="80" y="505" width="140" height="60" rx="6" fill="#fff" stroke="#7c3aed" stroke-width="1"/>
    <text x="150" y="528" font-size="11" font-weight="700" fill="#4c1d95" text-anchor="middle">🥇 Claude</text>
    <text x="150" y="547" font-size="9" fill="#6d28d9" text-anchor="middle">Industry best</text>
    <text x="150" y="560" font-size="9" fill="#6d28d9" text-anchor="middle">premium</text>

    <rect x="232" y="505" width="140" height="60" rx="6" fill="#fff" stroke="#7c3aed" stroke-width="1"/>
    <text x="302" y="528" font-size="11" font-weight="700" fill="#4c1d95" text-anchor="middle">💰 DeepSeek</text>
    <text x="302" y="547" font-size="9" fill="#6d28d9" text-anchor="middle">Best value</text>
    <text x="302" y="560" font-size="9" fill="#6d28d9" text-anchor="middle">CN strong</text>

    <rect x="384" y="505" width="140" height="60" rx="6" fill="#fff" stroke="#7c3aed" stroke-width="1"/>
    <text x="454" y="528" font-size="11" font-weight="700" fill="#4c1d95" text-anchor="middle">🌐 OpenAI</text>
    <text x="454" y="547" font-size="9" fill="#6d28d9" text-anchor="middle">Industry standard</text>
    <text x="454" y="560" font-size="9" fill="#6d28d9" text-anchor="middle">Full ecosystem</text>

    <rect x="536" y="505" width="200" height="60" rx="6" fill="#d1fae5" stroke="#059669" stroke-width="1.5"/>
    <text x="636" y="528" font-size="11" font-weight="700" fill="#064e3b" text-anchor="middle">🏠 Ollama Local</text>
    <text x="636" y="547" font-size="9" fill="#047857" text-anchor="middle">Gemma3 / Qwen2.5 / Llama</text>
    <text x="636" y="560" font-size="9" fill="#047857" text-anchor="middle">Data stays local</text>

    <text x="410" y="585" font-size="10" fill="#6d28d9" text-anchor="middle" font-style="italic">DecisionLog · AfterActionReview · auditable</text>
  </g>

  <!-- L3b Event -->
  <text x="800" y="345" font-size="12" font-weight="700" fill="#047857" letter-spacing="2">L3b · EVENT ENGINE</text>

  <g filter="url(#softShadow)">
    <rect x="800" y="355" width="440" height="240" rx="14" fill="url(#eventLight)" stroke="#059669" stroke-width="1.5"/>
    <text x="1020" y="385" font-size="15" font-weight="700" fill="#064e3b" text-anchor="middle">⚡ Event Engine</text>

    <rect x="820" y="400" width="180" height="50" rx="6" fill="#fff" stroke="#10b981" stroke-width="1"/>
    <text x="910" y="420" font-size="12" font-weight="700" fill="#064e3b" text-anchor="middle">EventBus</text>
    <text x="910" y="438" font-size="10" fill="#047857" text-anchor="middle">domain events</text>

    <rect x="1015" y="400" width="200" height="50" rx="6" fill="#fff" stroke="#10b981" stroke-width="1"/>
    <text x="1115" y="420" font-size="12" font-weight="700" fill="#064e3b" text-anchor="middle">ConstraintChecker</text>
    <text x="1115" y="438" font-size="10" fill="#047857" text-anchor="middle">16+ rules (BLOCK/WARN)</text>

    <rect x="820" y="465" width="395" height="50" rx="6" fill="#fff" stroke="#10b981" stroke-width="1"/>
    <text x="1017" y="485" font-size="12" font-weight="700" fill="#064e3b" text-anchor="middle">NotificationDispatcher · Role路由</text>
    <text x="1017" y="503" font-size="10" fill="#047857" text-anchor="middle">Events → role-based push (LINE / SSE / Push)</text>

    <rect x="820" y="525" width="120" height="55" rx="6" fill="#fff" stroke="#10b981" stroke-width="1"/>
    <text x="880" y="548" font-size="11" font-weight="700" fill="#064e3b" text-anchor="middle">📡 SSE</text>
    <text x="880" y="568" font-size="9" fill="#047857" text-anchor="middle">War Room live</text>

    <rect x="950" y="525" width="120" height="55" rx="6" fill="#fff" stroke="#10b981" stroke-width="1"/>
    <text x="1010" y="548" font-size="11" font-weight="700" fill="#064e3b" text-anchor="middle">💬 LINE Push</text>
    <text x="1010" y="568" font-size="9" fill="#047857" text-anchor="middle">Owner / Outsource</text>

    <rect x="1080" y="525" width="135" height="55" rx="6" fill="#fff" stroke="#10b981" stroke-width="1"/>
    <text x="1147" y="548" font-size="11" font-weight="700" fill="#064e3b" text-anchor="middle">🔔 FCM/APNs</text>
    <text x="1147" y="568" font-size="9" fill="#047857" text-anchor="middle">Mobile App</text>
  </g>

  <!-- RBAC -->
  <text x="1260" y="345" font-size="12" font-weight="700" fill="#be185d" letter-spacing="2">L3c · RBAC</text>
  <g filter="url(#softShadow)">
    <rect x="1260" y="355" width="180" height="240" rx="14" fill="url(#rbacLight)" stroke="#ec4899" stroke-width="1.5"/>
    <text x="1350" y="385" font-size="14" font-weight="700" fill="#831843" text-anchor="middle">🛡️ RBAC</text>
    <text x="1350" y="410" font-size="11" fill="#9d174d" text-anchor="middle">5 -layer perms</text>
    <line x1="1280" y1="425" x2="1420" y2="425" stroke="#f9a8d4" stroke-width="1"/>
    <text x="1350" y="448" font-size="10" fill="#831843" text-anchor="middle">Tenant Multi-factory</text>
    <text x="1350" y="466" font-size="10" fill="#831843" text-anchor="middle">User User</text>
    <text x="1350" y="484" font-size="10" fill="#831843" text-anchor="middle">Role Role (11)</text>
    <text x="1350" y="502" font-size="10" fill="#831843" text-anchor="middle">Permission (109)</text>
    <text x="1350" y="520" font-size="10" fill="#831843" text-anchor="middle">Row-Level Scope</text>
    <line x1="1280" y1="545" x2="1420" y2="545" stroke="#f9a8d4" stroke-width="1"/>
    <text x="1350" y="568" font-size="10" fill="#831843" text-anchor="middle">Sales A ≠ Sales B</text>
    <text x="1350" y="586" font-size="10" fill="#831843" text-anchor="middle">Outsource sees only own</text>
  </g>

  <!-- Agent ↔ Event interconnect -->
  <g stroke="#7c3aed" stroke-width="1.5" fill="none" opacity="0.5" stroke-dasharray="3,3">
    <path d="M 760 475 L 800 475"/>
  </g>

  <!-- L4 Domain -->
  <text x="60" y="620" font-size="12" font-weight="700" fill="#1d4ed8" letter-spacing="2">L4 · DOMAIN SERVICES · 12 Business Domains</text>

  <g filter="url(#softShadow)">
    <rect x="60" y="630" width="1380" height="140" rx="14" fill="url(#domainLight)" stroke="#3b82f6" stroke-width="1.5"/>

    <g fill="#1e3a8a" text-anchor="middle" font-size="11" font-weight="600">
      <rect x="80" y="650" width="140" height="40" rx="6" fill="#fff" stroke="#60a5fa" stroke-width="1"/>
      <text x="150" y="675">📦 Inventory Inventory</text>

      <rect x="232" y="650" width="140" height="40" rx="6" fill="#fff" stroke="#60a5fa" stroke-width="1"/>
      <text x="302" y="675">🛒 Purchase Purchase</text>

      <rect x="384" y="650" width="140" height="40" rx="6" fill="#fff" stroke="#60a5fa" stroke-width="1"/>
      <text x="454" y="675">🏭 Production Production</text>

      <rect x="536" y="650" width="140" height="40" rx="6" fill="#fff" stroke="#60a5fa" stroke-width="1"/>
      <text x="606" y="675">💰 Sales Sales</text>

      <rect x="688" y="650" width="140" height="40" rx="6" fill="#fff" stroke="#60a5fa" stroke-width="1"/>
      <text x="758" y="675">🔬 Quality Quality</text>

      <rect x="840" y="650" width="140" height="40" rx="6" fill="#fff" stroke="#60a5fa" stroke-width="1"/>
      <text x="910" y="675">💳 Accounting Accounting</text>

      <rect x="80" y="700" width="140" height="40" rx="6" fill="#fff" stroke="#60a5fa" stroke-width="1"/>
      <text x="150" y="725">📍 Warehouse Warehouse</text>

      <rect x="232" y="700" width="140" height="40" rx="6" fill="#fff" stroke="#60a5fa" stroke-width="1"/>
      <text x="302" y="725">👥 CRM CRM</text>

      <rect x="384" y="700" width="140" height="40" rx="6" fill="#fff" stroke="#60a5fa" stroke-width="1"/>
      <text x="454" y="725">📊 MPS/MRP MPS/MRP</text>

      <rect x="536" y="700" width="140" height="40" rx="6" fill="#fff" stroke="#60a5fa" stroke-width="1"/>
      <text x="606" y="725">🔗 Outsource Outsource</text>

      <rect x="688" y="700" width="140" height="40" rx="6" fill="#fff" stroke="#60a5fa" stroke-width="1"/>
      <text x="758" y="725">🏛️ Organization Organization</text>

      <rect x="840" y="700" width="140" height="40" rx="6" fill="#fff" stroke="#60a5fa" stroke-width="1"/>
      <text x="910" y="725">🤖 AI Governance</text>
    </g>

    <rect x="1000" y="650" width="420" height="90" rx="8" fill="#fff" stroke="#3b82f6" stroke-width="1.5"/>
    <text x="1210" y="675" font-size="13" font-weight="700" fill="#1e3a8a" text-anchor="middle">📊 102   API endpoints</text>
    <text x="1210" y="697" font-size="11" fill="#1d4ed8" text-anchor="middle">66 tables · 19  with tenant_id</text>
    <text x="1210" y="717" font-size="11" fill="#1d4ed8" text-anchor="middle">RBAC 109 perms · 11 roles · 6 row scopes</text>
    <text x="1210" y="735" font-size="11" fill="#1d4ed8" text-anchor="middle">Every endpoint protected by require_permission</text>
  </g>

  <g stroke="#d97706" stroke-width="1.5" fill="none" marker-end="url(#arrData)" opacity="0.6">
    <path d="M 400 770 L 400 810"/>
    <path d="M 800 770 L 800 810"/>
    <path d="M 1100 770 L 1100 810"/>
  </g>

  <!-- L5 Data Layer -->
  <text x="60" y="800" font-size="12" font-weight="700" fill="#0369a1" letter-spacing="2">L5 · DATA LAYER</text>

  <g filter="url(#softShadow)">
    <rect x="60" y="810" width="1380" height="100" rx="14" fill="url(#dataLight)" stroke="#0ea5e9" stroke-width="1.5"/>
    <text x="750" y="840" font-size="15" font-weight="700" fill="#0c4a6e" text-anchor="middle">🗄️ SQLAlchemy Async ORM</text>

    <rect x="80" y="855" width="320" height="45" rx="6" fill="#fff" stroke="#0ea5e9" stroke-width="1"/>
    <text x="240" y="877" font-size="11" font-weight="700" fill="#0c4a6e" text-anchor="middle">💾 PostgreSQL (prod) / SQLite (dev)</text>
    <text x="240" y="893" font-size="10" fill="#0369a1" text-anchor="middle">66 tables · Alembic Async migration</text>

    <rect x="420" y="855" width="320" height="45" rx="6" fill="#fff" stroke="#0ea5e9" stroke-width="1"/>
    <text x="580" y="877" font-size="11" font-weight="700" fill="#0c4a6e" text-anchor="middle">🪟 Row-Level Tenant Isolation</text>
    <text x="580" y="893" font-size="10" fill="#0369a1" text-anchor="middle">apply_row_filter() Auto-add WHERE</text>

    <rect x="760" y="855" width="320" height="45" rx="6" fill="#fff" stroke="#0ea5e9" stroke-width="1"/>
    <text x="920" y="877" font-size="11" font-weight="700" fill="#0c4a6e" text-anchor="middle">📜 Audit Trail · Change audit</text>
    <text x="920" y="893" font-size="10" fill="#0369a1" text-anchor="middle">audit_logs · permission_audit · decision_log</text>

    <rect x="1100" y="855" width="320" height="45" rx="6" fill="#fff" stroke="#0ea5e9" stroke-width="1"/>
    <text x="1260" y="877" font-size="11" font-weight="700" fill="#0c4a6e" text-anchor="middle">♻️ Data Lifecycle Hot/cold tiering</text>
    <text x="1260" y="893" font-size="10" fill="#0369a1" text-anchor="middle">90 -day archive + TTL auto-cleanup</text>
  </g>

  <g stroke="#c2410c" stroke-width="2" fill="none" marker-end="url(#arrMesh)" opacity="0.6" stroke-dasharray="5,3">
    <path d="M 400 910 L 400 945"/>
    <path d="M 800 910 L 800 945"/>
    <path d="M 1100 910 L 1100 945"/>
  </g>

  <!-- L6 MESH -->
  <text x="60" y="935" font-size="12" font-weight="700" fill="#c2410c" letter-spacing="2">L6 · MESH Multi-factory協同 · VMI · 各廠Local LLM</text>

  <g filter="url(#softShadow)">
    <rect x="60" y="945" width="1380" height="160" rx="14" fill="url(#meshLight)" stroke="#ea580c" stroke-width="1.5"/>
    <text x="750" y="975" font-size="14" font-weight="700" fill="#7c2d12" text-anchor="middle">🌐 MESH 工廠協同網（Data stays local · WireGuard VPN）</text>

    <rect x="80" y="990" width="220" height="100" rx="10" fill="#fff" stroke="#ea580c" stroke-width="2"/>
    <text x="190" y="1015" font-size="13" font-weight="700" fill="#7c2d12" text-anchor="middle">🏛️ HQ Central</text>
    <text x="190" y="1035" font-size="10" fill="#9a3412" text-anchor="middle">central node · Aggregate</text>
    <text x="190" y="1052" font-size="10" fill="#9a3412" text-anchor="middle">Collects factory summaries</text>
    <text x="190" y="1069" font-size="10" fill="#9a3412" text-anchor="middle">原始Data stays local</text>
    <text x="190" y="1083" font-size="9" fill="#7c2d12" text-anchor="middle">Owner LINE 問 → HQ 並發查</text>

    <rect x="332" y="990" width="220" height="100" rx="10" fill="#fff" stroke="#ea580c" stroke-width="1"/>
    <text x="442" y="1015" font-size="13" font-weight="700" fill="#7c2d12" text-anchor="middle">🏭 Main Factory (8001)</text>
    <text x="442" y="1035" font-size="10" fill="#9a3412" text-anchor="middle">Local DB</text>
    <text x="442" y="1052" font-size="10" fill="#9a3412" text-anchor="middle">Local Ollama LLM</text>
    <text x="442" y="1069" font-size="10" fill="#9a3412" text-anchor="middle">回 HQ 只送Aggregate</text>
    <text x="442" y="1083" font-size="9" fill="#7c2d12" text-anchor="middle">(qwen2.5:7b)</text>

    <rect x="584" y="990" width="220" height="100" rx="10" fill="#fff" stroke="#ea580c" stroke-width="1"/>
    <text x="694" y="1015" font-size="13" font-weight="700" fill="#7c2d12" text-anchor="middle">🔧 鍍鋅Outsource (8002)</text>
    <text x="694" y="1035" font-size="10" fill="#9a3412" text-anchor="middle">Outsource partner</text>
    <text x="694" y="1052" font-size="10" fill="#9a3412" text-anchor="middle">LINE QR report</text>
    <text x="694" y="1069" font-size="10" fill="#9a3412" text-anchor="middle">No ERP registration</text>
    <text x="694" y="1083" font-size="9" fill="#7c2d12" text-anchor="middle">Mr. Wu scans QR</text>

    <rect x="836" y="990" width="220" height="100" rx="10" fill="#fff" stroke="#ea580c" stroke-width="1"/>
    <text x="946" y="1015" font-size="13" font-weight="700" fill="#7c2d12" text-anchor="middle">🔬 檢驗Outsource (8003)</text>
    <text x="946" y="1035" font-size="10" fill="#9a3412" text-anchor="middle">Outsource partner</text>
    <text x="946" y="1052" font-size="10" fill="#9a3412" text-anchor="middle">Local IQC 紀錄</text>
    <text x="946" y="1069" font-size="10" fill="#9a3412" text-anchor="middle">只回合格率Aggregate</text>
    <text x="946" y="1083" font-size="9" fill="#7c2d12" text-anchor="middle">(gemma3:4b)</text>

    <rect x="1088" y="990" width="220" height="100" rx="10" fill="#fff7ed" stroke="#ea580c" stroke-width="1" stroke-dasharray="4,2"/>
    <text x="1198" y="1015" font-size="13" font-weight="700" fill="#7c2d12" text-anchor="middle">⚙️ Nth Factory</text>
    <text x="1198" y="1035" font-size="10" fill="#9a3412" text-anchor="middle">Unlimited scale</text>
    <text x="1198" y="1052" font-size="10" fill="#9a3412" text-anchor="middle">Each + NT$100k/yr</text>
    <text x="1198" y="1069" font-size="10" fill="#9a3412" text-anchor="middle">Independent</text>
    <text x="1198" y="1083" font-size="9" fill="#7c2d12" text-anchor="middle">CRM可隨需擴展</text>

    <g stroke="#9a3412" stroke-width="1.5" fill="none" opacity="0.6" stroke-dasharray="3,2">
      <path d="M 300 1040 L 332 1040" marker-end="url(#arrMesh)"/>
      <path d="M 552 1040 L 584 1040" marker-end="url(#arrMesh)"/>
      <path d="M 804 1040 L 836 1040" marker-end="url(#arrMesh)"/>
      <path d="M 1056 1040 L 1088 1040" marker-end="url(#arrMesh)"/>
    </g>

    <rect x="1320" y="1010" width="100" height="70" rx="6" fill="#fff" stroke="#ea580c" stroke-width="1"/>
    <text x="1370" y="1032" font-size="11" font-weight="700" fill="#7c2d12" text-anchor="middle">🔐 WireGuard</text>
    <text x="1370" y="1050" font-size="9" fill="#9a3412" text-anchor="middle">VPN encrypted</text>
    <text x="1370" y="1066" font-size="9" fill="#9a3412" text-anchor="middle">原始不外流</text>
    <text x="1370" y="1080" font-size="9" fill="#9a3412" text-anchor="middle">僅Aggregate通過</text>
  </g>

  <!-- 底部範例 + 圖例 -->
  <g>
    <rect x="60" y="1120" width="1480" height="60" rx="8" fill="#fff" stroke="#cbd5e1" stroke-width="1"/>
    <text x="80" y="1142" font-size="11" font-weight="700" fill="#1e293b">⚡ 典型流程例：CRM下單 → 出貨</text>
    <text x="80" y="1162" font-size="10" fill="#475569">
      [CRM LINE 詢價] → [Sales Mobile查 ATP] → [建立 SO] → [Constraint 信用check] → [Event so.confirmed]
      → [MRP 展開] → [Purchase PO] → [收貨→入庫] → [釋放工單] → [Outsource QR 掃描] → [完工入庫] → [出貨] → [Event so.shipped] → [推 LINE 給Owner]
    </text>

    <g transform="translate(1280, 1130)">
      <line x1="0" y1="0" x2="20" y2="0" stroke="#0891b2" stroke-width="2"/>
      <text x="25" y="3" font-size="9" fill="#475569">HTTP</text>
      <line x1="0" y1="14" x2="20" y2="14" stroke="#d97706" stroke-width="2"/>
      <text x="25" y="17" font-size="9" fill="#475569">SQL</text>
      <line x1="0" y1="28" x2="20" y2="28" stroke="#059669" stroke-width="2"/>
      <text x="25" y="31" font-size="9" fill="#475569">Event</text>
      <line x1="70" y1="0" x2="90" y2="0" stroke="#7c3aed" stroke-width="2" stroke-dasharray="3,3"/>
      <text x="95" y="3" font-size="9" fill="#475569">Internal</text>
      <line x1="70" y1="14" x2="90" y2="14" stroke="#c2410c" stroke-width="2" stroke-dasharray="5,3"/>
      <text x="95" y="17" font-size="9" fill="#475569">VPN</text>
    </g>
  </g>
</svg>
