<?xml version="1.0" encoding="UTF-8"?>
<svg xmlns="http://www.w3.org/2000/svg" viewBox="0 0 1600 1200" font-family="'Noto Sans TC', 'PingFang TC', 'Microsoft JhengHei', sans-serif">
  <defs>
    <!-- 淺色背景：柔和漸層 -->
    <linearGradient id="bgLight" x1="0" y1="0" x2="0" y2="1">
      <stop offset="0%" stop-color="#f8fafc"/>
      <stop offset="100%" stop-color="#e2e8f0"/>
    </linearGradient>

    <!-- 卡片用柔和色 -->
    <linearGradient id="clientLight" x1="0" y1="0" x2="0" y2="1">
      <stop offset="0%" stop-color="#cffafe"/><stop offset="100%" stop-color="#a5f3fc"/>
    </linearGradient>
    <linearGradient id="gateLight" x1="0" y1="0" x2="0" y2="1">
      <stop offset="0%" stop-color="#fef3c7"/><stop offset="100%" stop-color="#fde68a"/>
    </linearGradient>
    <linearGradient id="agentLight" x1="0" y1="0" x2="0" y2="1">
      <stop offset="0%" stop-color="#ede9fe"/><stop offset="100%" stop-color="#ddd6fe"/>
    </linearGradient>
    <linearGradient id="eventLight" x1="0" y1="0" x2="0" y2="1">
      <stop offset="0%" stop-color="#d1fae5"/><stop offset="100%" stop-color="#a7f3d0"/>
    </linearGradient>
    <linearGradient id="domainLight" x1="0" y1="0" x2="0" y2="1">
      <stop offset="0%" stop-color="#dbeafe"/><stop offset="100%" stop-color="#bfdbfe"/>
    </linearGradient>
    <linearGradient id="dataLight" x1="0" y1="0" x2="0" y2="1">
      <stop offset="0%" stop-color="#bae6fd"/><stop offset="100%" stop-color="#7dd3fc"/>
    </linearGradient>
    <linearGradient id="meshLight" x1="0" y1="0" x2="0" y2="1">
      <stop offset="0%" stop-color="#fed7aa"/><stop offset="100%" stop-color="#fdba74"/>
    </linearGradient>
    <linearGradient id="rbacLight" x1="0" y1="0" x2="0" y2="1">
      <stop offset="0%" stop-color="#fce7f3"/><stop offset="100%" stop-color="#fbcfe8"/>
    </linearGradient>

    <filter id="softShadow" x="-20%" y="-20%" width="140%" height="140%">
      <feGaussianBlur in="SourceAlpha" stdDeviation="2"/>
      <feOffset dx="0" dy="1.5" result="off"/>
      <feComponentTransfer><feFuncA type="linear" slope="0.15"/></feComponentTransfer>
      <feMerge><feMergeNode/><feMergeNode in="SourceGraphic"/></feMerge>
    </filter>

    <marker id="arrFlow" viewBox="0 0 10 10" refX="9" refY="5" markerWidth="7" markerHeight="7" orient="auto-start-reverse">
      <path d="M 0 0 L 10 5 L 0 10 z" fill="#0891b2"/>
    </marker>
    <marker id="arrData" viewBox="0 0 10 10" refX="9" refY="5" markerWidth="7" markerHeight="7" orient="auto-start-reverse">
      <path d="M 0 0 L 10 5 L 0 10 z" fill="#d97706"/>
    </marker>
    <marker id="arrMesh" viewBox="0 0 10 10" refX="9" refY="5" markerWidth="7" markerHeight="7" orient="auto-start-reverse">
      <path d="M 0 0 L 10 5 L 0 10 z" fill="#c2410c"/>
    </marker>
  </defs>

  <rect width="1600" height="1200" fill="url(#bgLight)"/>

  <!-- Title -->
  <text x="800" y="42" font-size="28" font-weight="700" fill="#0f172a" text-anchor="middle">
    LLM-ERP 系統架構流程關聯拓樸圖
  </text>
  <text x="800" y="66" font-size="13" fill="#64748b" text-anchor="middle">
    AI 原生小型製造業 ERP · Multi-Agent · MESH 多廠協同
  </text>

  <!-- ============================================================
       L1 · Client Touchpoints
       ============================================================ -->
  <text x="60" y="105" font-size="12" font-weight="700" fill="#0e7490" letter-spacing="2">L1 · 客戶觸點</text>

  <g filter="url(#softShadow)">
    <rect x="60" y="115" width="180" height="80" rx="12" fill="url(#clientLight)" stroke="#0891b2" stroke-width="1.5"/>
    <text x="150" y="143" font-size="14" font-weight="700" fill="#0c4a6e" text-anchor="middle">👔 王董 LINE</text>
    <text x="150" y="163" font-size="10" fill="#0e7490" text-anchor="middle">老闆儀表板</text>
    <text x="150" y="180" font-size="10" fill="#155e75" text-anchor="middle">「今天狀況?」</text>
  </g>

  <g filter="url(#softShadow)">
    <rect x="260" y="115" width="180" height="80" rx="12" fill="url(#clientLight)" stroke="#0891b2" stroke-width="1.5"/>
    <text x="350" y="143" font-size="14" font-weight="700" fill="#0c4a6e" text-anchor="middle">👨‍💼 業務手機</text>
    <text x="350" y="163" font-size="10" fill="#0e7490" text-anchor="middle">客戶面前 3 秒查</text>
    <text x="350" y="180" font-size="10" fill="#155e75" text-anchor="middle">「A 客戶歷史單價」</text>
  </g>

  <g filter="url(#softShadow)">
    <rect x="460" y="115" width="180" height="80" rx="12" fill="url(#clientLight)" stroke="#0891b2" stroke-width="1.5"/>
    <text x="550" y="143" font-size="14" font-weight="700" fill="#0c4a6e" text-anchor="middle">👨‍🏭 廠長手機</text>
    <text x="550" y="163" font-size="10" fill="#0e7490" text-anchor="middle">推播警示</text>
    <text x="550" y="180" font-size="10" fill="#155e75" text-anchor="middle">工單進度</text>
  </g>

  <g filter="url(#softShadow)">
    <rect x="660" y="115" width="180" height="80" rx="12" fill="url(#clientLight)" stroke="#0891b2" stroke-width="1.5"/>
    <text x="750" y="143" font-size="14" font-weight="700" fill="#0c4a6e" text-anchor="middle">👩‍💻 倉管掃 QR</text>
    <text x="750" y="163" font-size="10" fill="#0e7490" text-anchor="middle">收料 / 盤點</text>
    <text x="750" y="180" font-size="10" fill="#155e75" text-anchor="middle">拍照存證</text>
  </g>

  <g filter="url(#softShadow)">
    <rect x="860" y="115" width="180" height="80" rx="12" fill="url(#clientLight)" stroke="#0891b2" stroke-width="1.5"/>
    <text x="950" y="143" font-size="14" font-weight="700" fill="#0c4a6e" text-anchor="middle">🖥️ Desktop UI</text>
    <text x="950" y="163" font-size="10" fill="#0e7490" text-anchor="middle">React + Vite</text>
    <text x="950" y="180" font-size="10" fill="#155e75" text-anchor="middle">中英雙語</text>
  </g>

  <g filter="url(#softShadow)">
    <rect x="1060" y="115" width="180" height="80" rx="12" fill="url(#clientLight)" stroke="#0891b2" stroke-width="1.5"/>
    <text x="1150" y="143" font-size="14" font-weight="700" fill="#0c4a6e" text-anchor="middle">📡 War Room</text>
    <text x="1150" y="163" font-size="10" fill="#0e7490" text-anchor="middle">SSE 即時看板</text>
    <text x="1150" y="180" font-size="10" fill="#155e75" text-anchor="middle">指揮中心</text>
  </g>

  <g filter="url(#softShadow)">
    <rect x="1260" y="115" width="180" height="80" rx="12" fill="url(#clientLight)" stroke="#0891b2" stroke-width="1.5"/>
    <text x="1350" y="143" font-size="14" font-weight="700" fill="#0c4a6e" text-anchor="middle">👴 外協廠 LINE</text>
    <text x="1350" y="163" font-size="10" fill="#0e7490" text-anchor="middle">掃 QR 不註冊</text>
    <text x="1350" y="180" font-size="10" fill="#155e75" text-anchor="middle">回報完工</text>
  </g>

  <g stroke="#0891b2" stroke-width="1.5" fill="none" marker-end="url(#arrFlow)" opacity="0.7">
    <path d="M 150 195 L 150 230"/>
    <path d="M 350 195 L 350 230"/>
    <path d="M 550 195 L 550 230"/>
    <path d="M 750 195 L 750 230"/>
    <path d="M 950 195 L 950 230"/>
    <path d="M 1150 195 L 1150 230"/>
    <path d="M 1350 195 L 1350 230"/>
  </g>

  <!-- L2 API Gateway -->
  <text x="60" y="220" font-size="12" font-weight="700" fill="#b45309" letter-spacing="2">L2 · API Gateway · 認證 / 權限 / 稽核</text>

  <g filter="url(#softShadow)">
    <rect x="60" y="230" width="1380" height="80" rx="12" fill="url(#gateLight)" stroke="#d97706" stroke-width="1.5"/>
    <text x="750" y="262" font-size="16" font-weight="700" fill="#7c2d12" text-anchor="middle">
      🔐 AuthMiddleware → 📋 AuditMiddleware → 🛡️ RBAC 109 perms → 🪟 Row-Level Filter → ⚠️ Exception Handler
    </text>
    <text x="750" y="288" font-size="11" fill="#92400e" text-anchor="middle" font-weight="500">
      ① JWT 驗證 → ② 載入 UserContext → ③ require_permission 檢查 → ④ tenant_id 自動注入 → ⑤ 統一錯誤回應
    </text>
  </g>

  <g stroke="#d97706" stroke-width="1.5" fill="none" marker-end="url(#arrData)" opacity="0.6">
    <path d="M 400 310 L 400 350"/>
    <path d="M 1100 310 L 1100 350"/>
  </g>

  <!-- L3a Multi-Agent -->
  <text x="60" y="345" font-size="12" font-weight="700" fill="#6d28d9" letter-spacing="2">L3a · Multi-Agent · AI 大腦</text>

  <g filter="url(#softShadow)">
    <rect x="60" y="355" width="700" height="240" rx="14" fill="url(#agentLight)" stroke="#7c3aed" stroke-width="1.5"/>
    <text x="410" y="385" font-size="15" font-weight="700" fill="#4c1d95" text-anchor="middle">🤖 Multi-Agent Engine</text>

    <rect x="80" y="400" width="200" height="60" rx="8" fill="#f5f3ff" stroke="#a78bfa" stroke-width="1"/>
    <text x="180" y="425" font-size="12" font-weight="700" fill="#4c1d95" text-anchor="middle">① IntentClassifier</text>
    <text x="180" y="445" font-size="10" fill="#6d28d9" text-anchor="middle">加權關鍵字 → domain</text>

    <text x="295" y="435" font-size="20" fill="#6d28d9">→</text>

    <rect x="320" y="400" width="200" height="60" rx="8" fill="#f5f3ff" stroke="#a78bfa" stroke-width="1"/>
    <text x="420" y="420" font-size="12" font-weight="700" fill="#4c1d95" text-anchor="middle">② Agent Pool (10)</text>
    <text x="420" y="438" font-size="10" fill="#6d28d9" text-anchor="middle">Inventory / Sales / WMS</text>
    <text x="420" y="453" font-size="10" fill="#6d28d9" text-anchor="middle">Production / Quality...</text>

    <text x="535" y="435" font-size="20" fill="#6d28d9">→</text>

    <rect x="560" y="400" width="180" height="60" rx="8" fill="#f5f3ff" stroke="#a78bfa" stroke-width="1"/>
    <text x="650" y="420" font-size="12" font-weight="700" fill="#4c1d95" text-anchor="middle">③ Tool Calling Loop</text>
    <text x="650" y="438" font-size="10" fill="#6d28d9" text-anchor="middle">26+ tools · max 5 rounds</text>
    <text x="650" y="453" font-size="10" fill="#6d28d9" text-anchor="middle">→ 呼叫 Domain Services</text>

    <text x="410" y="490" font-size="12" font-weight="700" fill="#4c1d95" text-anchor="middle">④ LLM Provider (4 個可切換)</text>

    <rect x="80" y="505" width="140" height="60" rx="6" fill="#fff" stroke="#7c3aed" stroke-width="1"/>
    <text x="150" y="528" font-size="11" font-weight="700" fill="#4c1d95" text-anchor="middle">🥇 Claude</text>
    <text x="150" y="547" font-size="9" fill="#6d28d9" text-anchor="middle">業界最強</text>
    <text x="150" y="560" font-size="9" fill="#6d28d9" text-anchor="middle">premium</text>

    <rect x="232" y="505" width="140" height="60" rx="6" fill="#fff" stroke="#7c3aed" stroke-width="1"/>
    <text x="302" y="528" font-size="11" font-weight="700" fill="#4c1d95" text-anchor="middle">💰 DeepSeek</text>
    <text x="302" y="547" font-size="9" fill="#6d28d9" text-anchor="middle">CP 值最高</text>
    <text x="302" y="560" font-size="9" fill="#6d28d9" text-anchor="middle">中文強</text>

    <rect x="384" y="505" width="140" height="60" rx="6" fill="#fff" stroke="#7c3aed" stroke-width="1"/>
    <text x="454" y="528" font-size="11" font-weight="700" fill="#4c1d95" text-anchor="middle">🌐 OpenAI</text>
    <text x="454" y="547" font-size="9" fill="#6d28d9" text-anchor="middle">業界標準</text>
    <text x="454" y="560" font-size="9" fill="#6d28d9" text-anchor="middle">生態完整</text>

    <rect x="536" y="505" width="200" height="60" rx="6" fill="#d1fae5" stroke="#059669" stroke-width="1.5"/>
    <text x="636" y="528" font-size="11" font-weight="700" fill="#064e3b" text-anchor="middle">🏠 Ollama 本地</text>
    <text x="636" y="547" font-size="9" fill="#047857" text-anchor="middle">Gemma3 / Qwen2.5 / Llama</text>
    <text x="636" y="560" font-size="9" fill="#047857" text-anchor="middle">資料不外流</text>

    <text x="410" y="585" font-size="10" fill="#6d28d9" text-anchor="middle" font-style="italic">DecisionLog · AfterActionReview · 可追溯</text>
  </g>

  <!-- L3b Event -->
  <text x="800" y="345" font-size="12" font-weight="700" fill="#047857" letter-spacing="2">L3b · Event Engine · 事件引擎</text>

  <g filter="url(#softShadow)">
    <rect x="800" y="355" width="440" height="240" rx="14" fill="url(#eventLight)" stroke="#059669" stroke-width="1.5"/>
    <text x="1020" y="385" font-size="15" font-weight="700" fill="#064e3b" text-anchor="middle">⚡ Event Engine</text>

    <rect x="820" y="400" width="180" height="50" rx="6" fill="#fff" stroke="#10b981" stroke-width="1"/>
    <text x="910" y="420" font-size="12" font-weight="700" fill="#064e3b" text-anchor="middle">EventBus</text>
    <text x="910" y="438" font-size="10" fill="#047857" text-anchor="middle">domain events</text>

    <rect x="1015" y="400" width="200" height="50" rx="6" fill="#fff" stroke="#10b981" stroke-width="1"/>
    <text x="1115" y="420" font-size="12" font-weight="700" fill="#064e3b" text-anchor="middle">ConstraintChecker</text>
    <text x="1115" y="438" font-size="10" fill="#047857" text-anchor="middle">16+ rules (BLOCK/WARN)</text>

    <rect x="820" y="465" width="395" height="50" rx="6" fill="#fff" stroke="#10b981" stroke-width="1"/>
    <text x="1017" y="485" font-size="12" font-weight="700" fill="#064e3b" text-anchor="middle">NotificationDispatcher · 角色路由</text>
    <text x="1017" y="503" font-size="10" fill="#047857" text-anchor="middle">事件 → 對應角色推播（LINE / SSE / Push）</text>

    <rect x="820" y="525" width="120" height="55" rx="6" fill="#fff" stroke="#10b981" stroke-width="1"/>
    <text x="880" y="548" font-size="11" font-weight="700" fill="#064e3b" text-anchor="middle">📡 SSE</text>
    <text x="880" y="568" font-size="9" fill="#047857" text-anchor="middle">War Room 即時</text>

    <rect x="950" y="525" width="120" height="55" rx="6" fill="#fff" stroke="#10b981" stroke-width="1"/>
    <text x="1010" y="548" font-size="11" font-weight="700" fill="#064e3b" text-anchor="middle">💬 LINE Push</text>
    <text x="1010" y="568" font-size="9" fill="#047857" text-anchor="middle">老闆 / 外協</text>

    <rect x="1080" y="525" width="135" height="55" rx="6" fill="#fff" stroke="#10b981" stroke-width="1"/>
    <text x="1147" y="548" font-size="11" font-weight="700" fill="#064e3b" text-anchor="middle">🔔 FCM/APNs</text>
    <text x="1147" y="568" font-size="9" fill="#047857" text-anchor="middle">Mobile App</text>
  </g>

  <!-- RBAC -->
  <text x="1260" y="345" font-size="12" font-weight="700" fill="#be185d" letter-spacing="2">L3c · RBAC</text>
  <g filter="url(#softShadow)">
    <rect x="1260" y="355" width="180" height="240" rx="14" fill="url(#rbacLight)" stroke="#ec4899" stroke-width="1.5"/>
    <text x="1350" y="385" font-size="14" font-weight="700" fill="#831843" text-anchor="middle">🛡️ RBAC</text>
    <text x="1350" y="410" font-size="11" fill="#9d174d" text-anchor="middle">5 層權限</text>
    <line x1="1280" y1="425" x2="1420" y2="425" stroke="#f9a8d4" stroke-width="1"/>
    <text x="1350" y="448" font-size="10" fill="#831843" text-anchor="middle">Tenant 多廠</text>
    <text x="1350" y="466" font-size="10" fill="#831843" text-anchor="middle">User 使用者</text>
    <text x="1350" y="484" font-size="10" fill="#831843" text-anchor="middle">Role 角色 (11)</text>
    <text x="1350" y="502" font-size="10" fill="#831843" text-anchor="middle">Permission (109)</text>
    <text x="1350" y="520" font-size="10" fill="#831843" text-anchor="middle">Row-Level Scope</text>
    <line x1="1280" y1="545" x2="1420" y2="545" stroke="#f9a8d4" stroke-width="1"/>
    <text x="1350" y="568" font-size="10" fill="#831843" text-anchor="middle">業務 A ≠ 業務 B</text>
    <text x="1350" y="586" font-size="10" fill="#831843" text-anchor="middle">外協廠各自看</text>
  </g>

  <!-- Agent ↔ Event interconnect -->
  <g stroke="#7c3aed" stroke-width="1.5" fill="none" opacity="0.5" stroke-dasharray="3,3">
    <path d="M 760 475 L 800 475"/>
  </g>

  <!-- L4 Domain -->
  <text x="60" y="620" font-size="12" font-weight="700" fill="#1d4ed8" letter-spacing="2">L4 · Domain Services · 12 個業務領域</text>

  <g filter="url(#softShadow)">
    <rect x="60" y="630" width="1380" height="140" rx="14" fill="url(#domainLight)" stroke="#3b82f6" stroke-width="1.5"/>

    <g fill="#1e3a8a" text-anchor="middle" font-size="11" font-weight="600">
      <rect x="80" y="650" width="140" height="40" rx="6" fill="#fff" stroke="#60a5fa" stroke-width="1"/>
      <text x="150" y="675">📦 Inventory 庫存</text>

      <rect x="232" y="650" width="140" height="40" rx="6" fill="#fff" stroke="#60a5fa" stroke-width="1"/>
      <text x="302" y="675">🛒 Purchase 採購</text>

      <rect x="384" y="650" width="140" height="40" rx="6" fill="#fff" stroke="#60a5fa" stroke-width="1"/>
      <text x="454" y="675">🏭 Production 生產</text>

      <rect x="536" y="650" width="140" height="40" rx="6" fill="#fff" stroke="#60a5fa" stroke-width="1"/>
      <text x="606" y="675">💰 Sales 銷售</text>

      <rect x="688" y="650" width="140" height="40" rx="6" fill="#fff" stroke="#60a5fa" stroke-width="1"/>
      <text x="758" y="675">🔬 Quality 品質</text>

      <rect x="840" y="650" width="140" height="40" rx="6" fill="#fff" stroke="#60a5fa" stroke-width="1"/>
      <text x="910" y="675">💳 Accounting 會計</text>

      <rect x="80" y="700" width="140" height="40" rx="6" fill="#fff" stroke="#60a5fa" stroke-width="1"/>
      <text x="150" y="725">📍 Warehouse 倉儲</text>

      <rect x="232" y="700" width="140" height="40" rx="6" fill="#fff" stroke="#60a5fa" stroke-width="1"/>
      <text x="302" y="725">👥 CRM 客戶</text>

      <rect x="384" y="700" width="140" height="40" rx="6" fill="#fff" stroke="#60a5fa" stroke-width="1"/>
      <text x="454" y="725">📊 MPS/MRP 排程</text>

      <rect x="536" y="700" width="140" height="40" rx="6" fill="#fff" stroke="#60a5fa" stroke-width="1"/>
      <text x="606" y="725">🔗 Outsource 外協</text>

      <rect x="688" y="700" width="140" height="40" rx="6" fill="#fff" stroke="#60a5fa" stroke-width="1"/>
      <text x="758" y="725">🏛️ Organization 組織</text>

      <rect x="840" y="700" width="140" height="40" rx="6" fill="#fff" stroke="#60a5fa" stroke-width="1"/>
      <text x="910" y="725">🤖 AI Governance</text>
    </g>

    <rect x="1000" y="650" width="420" height="90" rx="8" fill="#fff" stroke="#3b82f6" stroke-width="1.5"/>
    <text x="1210" y="675" font-size="13" font-weight="700" fill="#1e3a8a" text-anchor="middle">📊 102 個 API endpoints</text>
    <text x="1210" y="697" font-size="11" fill="#1d4ed8" text-anchor="middle">66 個 tables · 19 個帶 tenant_id</text>
    <text x="1210" y="717" font-size="11" fill="#1d4ed8" text-anchor="middle">RBAC 109 perms · 11 roles · 6 row scopes</text>
    <text x="1210" y="735" font-size="11" fill="#1d4ed8" text-anchor="middle">每個 endpoint 都受 require_permission 保護</text>
  </g>

  <g stroke="#d97706" stroke-width="1.5" fill="none" marker-end="url(#arrData)" opacity="0.6">
    <path d="M 400 770 L 400 810"/>
    <path d="M 800 770 L 800 810"/>
    <path d="M 1100 770 L 1100 810"/>
  </g>

  <!-- L5 Data Layer -->
  <text x="60" y="800" font-size="12" font-weight="700" fill="#0369a1" letter-spacing="2">L5 · Data Layer · 資料層</text>

  <g filter="url(#softShadow)">
    <rect x="60" y="810" width="1380" height="100" rx="14" fill="url(#dataLight)" stroke="#0ea5e9" stroke-width="1.5"/>
    <text x="750" y="840" font-size="15" font-weight="700" fill="#0c4a6e" text-anchor="middle">🗄️ SQLAlchemy Async ORM</text>

    <rect x="80" y="855" width="320" height="45" rx="6" fill="#fff" stroke="#0ea5e9" stroke-width="1"/>
    <text x="240" y="877" font-size="11" font-weight="700" fill="#0c4a6e" text-anchor="middle">💾 PostgreSQL (prod) / SQLite (dev)</text>
    <text x="240" y="893" font-size="10" fill="#0369a1" text-anchor="middle">66 個 tables · Alembic Async migration</text>

    <rect x="420" y="855" width="320" height="45" rx="6" fill="#fff" stroke="#0ea5e9" stroke-width="1"/>
    <text x="580" y="877" font-size="11" font-weight="700" fill="#0c4a6e" text-anchor="middle">🪟 Row-Level Tenant Isolation</text>
    <text x="580" y="893" font-size="10" fill="#0369a1" text-anchor="middle">apply_row_filter() 自動加 WHERE</text>

    <rect x="760" y="855" width="320" height="45" rx="6" fill="#fff" stroke="#0ea5e9" stroke-width="1"/>
    <text x="920" y="877" font-size="11" font-weight="700" fill="#0c4a6e" text-anchor="middle">📜 Audit Trail · 變更稽核</text>
    <text x="920" y="893" font-size="10" fill="#0369a1" text-anchor="middle">audit_logs · permission_audit · decision_log</text>

    <rect x="1100" y="855" width="320" height="45" rx="6" fill="#fff" stroke="#0ea5e9" stroke-width="1"/>
    <text x="1260" y="877" font-size="11" font-weight="700" fill="#0c4a6e" text-anchor="middle">♻️ Data Lifecycle 冷熱分層</text>
    <text x="1260" y="893" font-size="10" fill="#0369a1" text-anchor="middle">90 天歸檔 + TTL 自動清理</text>
  </g>

  <g stroke="#c2410c" stroke-width="2" fill="none" marker-end="url(#arrMesh)" opacity="0.6" stroke-dasharray="5,3">
    <path d="M 400 910 L 400 945"/>
    <path d="M 800 910 L 800 945"/>
    <path d="M 1100 910 L 1100 945"/>
  </g>

  <!-- L6 MESH -->
  <text x="60" y="935" font-size="12" font-weight="700" fill="#c2410c" letter-spacing="2">L6 · MESH 多廠協同 · VMI · 各廠本地 LLM</text>

  <g filter="url(#softShadow)">
    <rect x="60" y="945" width="1380" height="160" rx="14" fill="url(#meshLight)" stroke="#ea580c" stroke-width="1.5"/>
    <text x="750" y="975" font-size="14" font-weight="700" fill="#7c2d12" text-anchor="middle">🌐 MESH 工廠協同網（資料不外流 · WireGuard VPN）</text>

    <rect x="80" y="990" width="220" height="100" rx="10" fill="#fff" stroke="#ea580c" stroke-width="2"/>
    <text x="190" y="1015" font-size="13" font-weight="700" fill="#7c2d12" text-anchor="middle">🏛️ HQ 總部</text>
    <text x="190" y="1035" font-size="10" fill="#9a3412" text-anchor="middle">central node · 聚合</text>
    <text x="190" y="1052" font-size="10" fill="#9a3412" text-anchor="middle">收集各廠摘要</text>
    <text x="190" y="1069" font-size="10" fill="#9a3412" text-anchor="middle">原始資料不外流</text>
    <text x="190" y="1083" font-size="9" fill="#7c2d12" text-anchor="middle">王董 LINE 問 → HQ 並發查</text>

    <rect x="332" y="990" width="220" height="100" rx="10" fill="#fff" stroke="#ea580c" stroke-width="1"/>
    <text x="442" y="1015" font-size="13" font-weight="700" fill="#7c2d12" text-anchor="middle">🏭 主廠 (8001)</text>
    <text x="442" y="1035" font-size="10" fill="#9a3412" text-anchor="middle">本地 DB</text>
    <text x="442" y="1052" font-size="10" fill="#9a3412" text-anchor="middle">本地 Ollama LLM</text>
    <text x="442" y="1069" font-size="10" fill="#9a3412" text-anchor="middle">回 HQ 只送聚合</text>
    <text x="442" y="1083" font-size="9" fill="#7c2d12" text-anchor="middle">(qwen2.5:7b)</text>

    <rect x="584" y="990" width="220" height="100" rx="10" fill="#fff" stroke="#ea580c" stroke-width="1"/>
    <text x="694" y="1015" font-size="13" font-weight="700" fill="#7c2d12" text-anchor="middle">🔧 鍍鋅外協 (8002)</text>
    <text x="694" y="1035" font-size="10" fill="#9a3412" text-anchor="middle">外協 partner</text>
    <text x="694" y="1052" font-size="10" fill="#9a3412" text-anchor="middle">LINE QR 回報</text>
    <text x="694" y="1069" font-size="10" fill="#9a3412" text-anchor="middle">無需註冊 ERP</text>
    <text x="694" y="1083" font-size="9" fill="#7c2d12" text-anchor="middle">老吳掃 QR 即可</text>

    <rect x="836" y="990" width="220" height="100" rx="10" fill="#fff" stroke="#ea580c" stroke-width="1"/>
    <text x="946" y="1015" font-size="13" font-weight="700" fill="#7c2d12" text-anchor="middle">🔬 檢驗外協 (8003)</text>
    <text x="946" y="1035" font-size="10" fill="#9a3412" text-anchor="middle">外協 partner</text>
    <text x="946" y="1052" font-size="10" fill="#9a3412" text-anchor="middle">本地 IQC 紀錄</text>
    <text x="946" y="1069" font-size="10" fill="#9a3412" text-anchor="middle">只回合格率聚合</text>
    <text x="946" y="1083" font-size="9" fill="#7c2d12" text-anchor="middle">(gemma3:4b)</text>

    <rect x="1088" y="990" width="220" height="100" rx="10" fill="#fff7ed" stroke="#ea580c" stroke-width="1" stroke-dasharray="4,2"/>
    <text x="1198" y="1015" font-size="13" font-weight="700" fill="#7c2d12" text-anchor="middle">⚙️ 第 N 個工廠</text>
    <text x="1198" y="1035" font-size="10" fill="#9a3412" text-anchor="middle">無上限擴展</text>
    <text x="1198" y="1052" font-size="10" fill="#9a3412" text-anchor="middle">每加 1 廠 +NT$10萬</text>
    <text x="1198" y="1069" font-size="10" fill="#9a3412" text-anchor="middle">各自獨立</text>
    <text x="1198" y="1083" font-size="9" fill="#7c2d12" text-anchor="middle">客戶可隨需擴展</text>

    <g stroke="#9a3412" stroke-width="1.5" fill="none" opacity="0.6" stroke-dasharray="3,2">
      <path d="M 300 1040 L 332 1040" marker-end="url(#arrMesh)"/>
      <path d="M 552 1040 L 584 1040" marker-end="url(#arrMesh)"/>
      <path d="M 804 1040 L 836 1040" marker-end="url(#arrMesh)"/>
      <path d="M 1056 1040 L 1088 1040" marker-end="url(#arrMesh)"/>
    </g>

    <rect x="1320" y="1010" width="100" height="70" rx="6" fill="#fff" stroke="#ea580c" stroke-width="1"/>
    <text x="1370" y="1032" font-size="11" font-weight="700" fill="#7c2d12" text-anchor="middle">🔐 WireGuard</text>
    <text x="1370" y="1050" font-size="9" fill="#9a3412" text-anchor="middle">VPN 加密</text>
    <text x="1370" y="1066" font-size="9" fill="#9a3412" text-anchor="middle">原始不外流</text>
    <text x="1370" y="1080" font-size="9" fill="#9a3412" text-anchor="middle">僅聚合通過</text>
  </g>

  <!-- 底部範例 + 圖例 -->
  <g>
    <rect x="60" y="1120" width="1480" height="60" rx="8" fill="#fff" stroke="#cbd5e1" stroke-width="1"/>
    <text x="80" y="1142" font-size="11" font-weight="700" fill="#1e293b">⚡ 典型流程例：客戶下單 → 出貨</text>
    <text x="80" y="1162" font-size="10" fill="#475569">
      [客戶 LINE 詢價] → [業務手機查 ATP] → [建立 SO] → [Constraint 信用檢查] → [Event so.confirmed]
      → [MRP 展開] → [採購 PO] → [收貨→入庫] → [釋放工單] → [外協 QR 掃描] → [完工入庫] → [出貨] → [Event so.shipped] → [推 LINE 給老闆]
    </text>

    <g transform="translate(1280, 1130)">
      <line x1="0" y1="0" x2="20" y2="0" stroke="#0891b2" stroke-width="2"/>
      <text x="25" y="3" font-size="9" fill="#475569">HTTP</text>
      <line x1="0" y1="14" x2="20" y2="14" stroke="#d97706" stroke-width="2"/>
      <text x="25" y="17" font-size="9" fill="#475569">SQL</text>
      <line x1="0" y1="28" x2="20" y2="28" stroke="#059669" stroke-width="2"/>
      <text x="25" y="31" font-size="9" fill="#475569">Event</text>
      <line x1="70" y1="0" x2="90" y2="0" stroke="#7c3aed" stroke-width="2" stroke-dasharray="3,3"/>
      <text x="95" y="3" font-size="9" fill="#475569">內部</text>
      <line x1="70" y1="14" x2="90" y2="14" stroke="#c2410c" stroke-width="2" stroke-dasharray="5,3"/>
      <text x="95" y="17" font-size="9" fill="#475569">VPN</text>
    </g>
  </g>
</svg>
